# xmcd
#
# Track frame offsets: 
#        183
#        23188
#        44200
#        60858
#        78268
#        102638
#        121000
#        137380
#        157735
#        176775
#
# Disc length: 2583 seconds
#
# Revision: 4
# Processed by: cddbd v1.4PL0 Copyright (c) Steve Scherf et al.
# Submitted via: ExactAudioCopy v0.90b4
#
DISCID=770a150a
DTITLE=Faye Wong (as Shirley Wong) - Shirley Wong
DYEAR=1989
DGENRE=Pop
TTITLE0=However That Day
TTITLE1=Excuse 
TTITLE2=If Destined
TTITLE3=Delicate Hand
TTITLE4=Last Train
TTITLE5=A Yet Unsettled Heart (duet)
TTITLE6=Still The Same Phrase
TTITLE7=Middle Person
TTITLE8=Like Listening To Lies
TTITLE9=New Life
EXTD=YEAR: 1989 ID3G: 13
EXTT0=
EXTT1=
EXTT2=
EXTT3=
EXTT4=
EXTT5=
EXTT6=
EXTT7=
EXTT8=
EXTT9=
PLAYORDER=
